<svg width="29" height="21" viewBox="0 0 29 21" fill="none" xmlns="http://www.w3.org/2000/svg">
<path d="M10.5995 20.8956L10.5916 20.8921L10.5668 20.8781C10.4216 20.7955 10.2775 20.7107 10.1347 20.6238C8.41733 19.5685 6.81241 18.3288 5.34656 16.9253C2.75056 14.4205 0 10.7034 0 6.12524C0 2.70915 2.7799 8.27786e-05 6.13518 8.27786e-05C7.06793 -0.00464167 7.9897 0.208152 8.83195 0.622638C9.6742 1.03712 10.4153 1.64264 11 2.39414C11.5849 1.64248 12.3261 1.03688 13.1686 0.622384C14.011 0.207892 14.933 -0.00481735 15.8659 8.27786e-05C19.2201 8.27786e-05 22 2.70915 22 6.12524C22 10.7045 19.2494 14.4216 16.6534 16.9242C15.1876 18.3277 13.5827 19.5674 11.8653 20.6226C11.7225 20.7099 11.5784 20.7951 11.4332 20.8781L11.4084 20.8921L11.4005 20.8968L11.3971 20.8979C11.2748 20.965 11.1384 21 11 21C10.8616 21 10.7252 20.965 10.6029 20.8979L10.5995 20.8956Z" fill="white"/>
<path d="M20.8933 18.4667L24.0833 12.2333H21.8833V8.2L18.5833 14.4333H20.8933V18.4667ZM21.3333 20.6667C20.3189 20.6667 19.3656 20.4742 18.4733 20.0892C17.5811 19.7042 16.805 19.1817 16.145 18.5217C15.485 17.8617 14.9625 17.0856 14.5775 16.1933C14.1925 15.3011 14 14.3478 14 13.3333C14 12.3189 14.1925 11.3656 14.5775 10.4733C14.9625 9.58111 15.485 8.805 16.145 8.145C16.805 7.485 17.5811 6.9625 18.4733 6.5775C19.3656 6.1925 20.3189 6 21.3333 6C22.3478 6 23.3011 6.1925 24.1933 6.5775C25.0856 6.9625 25.8617 7.485 26.5217 8.145C27.1817 8.805 27.7042 9.58111 28.0892 10.4733C28.4742 11.3656 28.6667 12.3189 28.6667 13.3333C28.6667 14.3478 28.4742 15.3011 28.0892 16.1933C27.7042 17.0856 27.1817 17.8617 26.5217 18.5217C25.8617 19.1817 25.0856 19.7042 24.1933 20.0892C23.3011 20.4742 22.3478 20.6667 21.3333 20.6667Z" fill="#894189"/>
<path d="M19.1467 17.9749L22.9167 12.2374H20.3167V8.52489L16.4167 14.2624H19.1467V17.9749ZM19.6667 20C18.4678 20 17.3411 19.8228 16.2867 19.4684C15.2322 19.114 14.315 18.6331 13.535 18.0256C12.755 17.4181 12.1375 16.7037 11.6825 15.8824C11.2275 15.0612 11 14.1837 11 13.2499C11 12.3162 11.2275 11.4387 11.6825 10.6174C12.1375 9.79615 12.755 9.08177 13.535 8.47426C14.315 7.86676 15.2322 7.38582 16.2867 7.03144C17.3411 6.67707 18.4678 6.49988 19.6667 6.49988C20.8656 6.49988 21.9922 6.67707 23.0467 7.03144C24.1011 7.38582 25.0183 7.86676 25.7983 8.47426C26.5783 9.08177 27.1958 9.79615 27.6508 10.6174C28.1058 11.4387 28.3333 12.3162 28.3333 13.2499C28.3333 14.1837 28.1058 15.0612 27.6508 15.8824C27.1958 16.7037 26.5783 17.4181 25.7983 18.0256C25.0183 18.6331 24.1011 19.114 23.0467 19.4684C21.9922 19.8228 20.8656 20 19.6667 20Z" fill="white"/>
</svg>
